<svg xmlns="http://www.w3.org/2000/svg" viewBox="0 0 450.00 438.00" data-guides="{&quot;vertical&quot;:[],&quot;horizontal&quot;:[]}"><defs/><path fill="#59cab2" fill-opacity="1" stroke="#000000" stroke-opacity="1" stroke-width="2" id="tSvg238d6317d9" title="Ellipse 3" d="M225.0002 2.0015C348.1598 2.0015 448.0002 99.1557 448.0002 219.0015C448.0002 338.8473 348.1598 436.0015 225.0002 436.0015C101.8407 436.0015 2.0002 338.8473 2.0002 219.0015C2.0002 99.1557 101.8407 2.0015 225.0002 2.0015Z" style="transform-origin: 225px 219px;"/><path fill="#51d6f7" stroke="#03d1ff" fill-opacity="1" stroke-width="1" stroke-opacity="1" title="Ellipse 1" d="M224.7098 435.5018C159.8165 435.3399 107.3403 383.0499 107.5009 318.709C107.6614 254.368 236.8942 3.5308 225.7902 2.5031C215.9388 1.5913 342.6607 254.9543 342.5001 319.2953C342.3396 383.6363 289.6031 435.6637 224.7098 435.5018Z" id="tSvgc2f8fec3cf" style="transform-origin: 225.25px 107px;"/><path fill="#72a5fc" fill-opacity="1" stroke="#000000" stroke-opacity="1" stroke-width="2" id="tSvg19b20609647" title="Rectangle 1" d="M169.5002 157.5H280.5002V384.5H169.5002Z" style="transform-origin: 225px 271px;"/><line fill="#0affec" fill-opacity="1" stroke="#000000" stroke-opacity="1" stroke-width="2" id="tSvg117f3b9a924" title="Line 1" x1="230.75" y1="156.50" x2="230.75" y2="384.50" style="transform-origin: 230.75px 270.5px;"/><path fill="#ffda09" fill-opacity="1" stroke="#000000" stroke-opacity="1" stroke-width="2" id="tSvg180ebe4b1b2" title="Ellipse 2" d="M179.75 261.5C184.1683 261.5 187.75 264.634 187.75 268.5C187.75 272.366 184.1683 275.5 179.75 275.5C175.3317 275.5 171.75 272.366 171.75 268.5C171.75 264.634 175.3317 261.5 179.75 261.5Z" style="transform-origin: 179.75px 268.5px;"/><path fill="#59cab2" fill-opacity="1" stroke="#000000" stroke-opacity="1" stroke-width="2" id="tSvg21af9b6554" title="Rectangle 6" d="M61.75 300.5H385.75V357.5H61.75Z" style="transform-origin: 223.75px 329px;"/><text font-size="31px" font-weight="400" font-style="normal" text-anchor="middle" letter-spacing="0px" word-spacing="normal" data-lh="1" data-tt="none" stroke="none" stroke-width="0" id="tSvg2739b71681" data-ff="Arial" x="59.75" y="300.50" width="326" height="57" title="Design creates cultu" fill="#ffffff" fill-opacity="1" stroke-opacity="1" data-valign="middle" data-fs="normal" data-text="ТУАЛЕТБИО.РФ" style="font-family: Arial; text-decoration: none; transform-origin: 222.75px 329px;"><tspan y="339.85" x="222.75">ТУАЛЕТБИО.РФ</tspan></text></svg>